<mxfile host="app.diagrams.net" modified="2023-10-12T06:32:58.511Z" agent="Mozilla/5.0 (X11; Linux x86_64) AppleWebKit/537.36 (KHTML, like Gecko) Chrome/114.0.0.0 Safari/537.36" version="22.0.4" etag="6UzpyWxoRswbnZ57XPpX" type="github">
  <diagram name="第 1 页" id="cnAK6zxrRtvMNEw_1psN">
    <mxGraphModel>
      <root>
        <mxCell id="0" />
        <mxCell id="1" parent="0" />
      </root>
    </mxGraphModel>
  </diagram>
</mxfile>
